<mxfile host="app.diagrams.net" modified="2020-05-08T18:32:56.704Z" agent="5.0 (X11; Linux x86_64) AppleWebKit/537.36 (KHTML, like Gecko) Chrome/81.0.4044.129 Safari/537.36" etag="DjL6KQDuz3WhLqvSPqHN" version="13.0.9" type="github">
  <diagram id="VlpD_25U13q7q78wCvk9" name="Page-1">
    <mxGraphModel dx="1973" dy="1134" grid="1" gridSize="10" guides="1" tooltips="1" connect="1" arrows="1" fold="1" page="1" pageScale="1" pageWidth="827" pageHeight="1169" math="0" shadow="0">
      <root>
        <mxCell id="0" />
        <mxCell id="1" parent="0" />
        <mxCell id="LOavYstI44WjWDfzI2Ox-1" value="Write services" style="rounded=0;whiteSpace=wrap;html=1;" parent="1" vertex="1">
          <mxGeometry x="490" y="540" width="120" height="60" as="geometry" />
        </mxCell>
        <mxCell id="LOavYstI44WjWDfzI2Ox-2" value="Write DB (NoSQL)" style="shape=cylinder;whiteSpace=wrap;html=1;boundedLbl=1;backgroundOutline=1;" parent="1" vertex="1">
          <mxGeometry x="500" y="740" width="60" height="80" as="geometry" />
        </mxCell>
        <mxCell id="LOavYstI44WjWDfzI2Ox-3" value="" style="endArrow=classic;html=1;entryX=1;entryY=0.5;entryDx=0;entryDy=0;" parent="1" target="LOavYstI44WjWDfzI2Ox-7" edge="1">
          <mxGeometry width="50" height="50" relative="1" as="geometry">
            <mxPoint x="530" y="600" as="sourcePoint" />
            <mxPoint x="440" y="630" as="targetPoint" />
          </mxGeometry>
        </mxCell>
        <mxCell id="LOavYstI44WjWDfzI2Ox-4" value="" style="endArrow=classic;html=1;entryX=0.5;entryY=0;entryDx=0;entryDy=0;" parent="1" target="LOavYstI44WjWDfzI2Ox-2" edge="1">
          <mxGeometry width="50" height="50" relative="1" as="geometry">
            <mxPoint x="530" y="600" as="sourcePoint" />
            <mxPoint x="580" y="560" as="targetPoint" />
          </mxGeometry>
        </mxCell>
        <mxCell id="LOavYstI44WjWDfzI2Ox-21" style="edgeStyle=orthogonalEdgeStyle;rounded=0;orthogonalLoop=1;jettySize=auto;html=1;exitX=0;exitY=0.5;exitDx=0;exitDy=0;entryX=1;entryY=0.5;entryDx=0;entryDy=0;" parent="1" source="LOavYstI44WjWDfzI2Ox-5" target="LOavYstI44WjWDfzI2Ox-20" edge="1">
          <mxGeometry relative="1" as="geometry" />
        </mxCell>
        <mxCell id="LOavYstI44WjWDfzI2Ox-5" value="Read services" style="rounded=0;whiteSpace=wrap;html=1;" parent="1" vertex="1">
          <mxGeometry x="190" y="540" width="120" height="60" as="geometry" />
        </mxCell>
        <mxCell id="LOavYstI44WjWDfzI2Ox-6" value="Read DB (OLAP)" style="shape=cylinder;whiteSpace=wrap;html=1;boundedLbl=1;backgroundOutline=1;" parent="1" vertex="1">
          <mxGeometry x="220" y="740" width="60" height="80" as="geometry" />
        </mxCell>
        <mxCell id="LOavYstI44WjWDfzI2Ox-7" value="Message queue" style="shape=process;whiteSpace=wrap;html=1;backgroundOutline=1;" parent="1" vertex="1">
          <mxGeometry x="330" y="630" width="120" height="60" as="geometry" />
        </mxCell>
        <mxCell id="LOavYstI44WjWDfzI2Ox-11" value="" style="endArrow=classic;html=1;exitX=0;exitY=0.5;exitDx=0;exitDy=0;entryX=0.5;entryY=1;entryDx=0;entryDy=0;" parent="1" source="LOavYstI44WjWDfzI2Ox-7" target="LOavYstI44WjWDfzI2Ox-5" edge="1">
          <mxGeometry width="50" height="50" relative="1" as="geometry">
            <mxPoint x="530" y="600" as="sourcePoint" />
            <mxPoint x="580" y="550" as="targetPoint" />
          </mxGeometry>
        </mxCell>
        <mxCell id="LOavYstI44WjWDfzI2Ox-15" value="" style="endArrow=classic;html=1;entryX=0.5;entryY=0;entryDx=0;entryDy=0;exitX=0.5;exitY=1;exitDx=0;exitDy=0;" parent="1" source="LOavYstI44WjWDfzI2Ox-5" target="LOavYstI44WjWDfzI2Ox-6" edge="1">
          <mxGeometry width="50" height="50" relative="1" as="geometry">
            <mxPoint x="210" y="660" as="sourcePoint" />
            <mxPoint x="260" y="610" as="targetPoint" />
          </mxGeometry>
        </mxCell>
        <mxCell id="LOavYstI44WjWDfzI2Ox-17" style="edgeStyle=orthogonalEdgeStyle;rounded=0;orthogonalLoop=1;jettySize=auto;html=1;exitX=0.5;exitY=1;exitDx=0;exitDy=0;entryX=0.5;entryY=0;entryDx=0;entryDy=0;" parent="1" source="LOavYstI44WjWDfzI2Ox-16" target="LOavYstI44WjWDfzI2Ox-1" edge="1">
          <mxGeometry relative="1" as="geometry" />
        </mxCell>
        <mxCell id="LOavYstI44WjWDfzI2Ox-18" style="edgeStyle=orthogonalEdgeStyle;rounded=0;orthogonalLoop=1;jettySize=auto;html=1;exitX=0.5;exitY=1;exitDx=0;exitDy=0;entryX=0.5;entryY=0;entryDx=0;entryDy=0;" parent="1" source="LOavYstI44WjWDfzI2Ox-16" target="LOavYstI44WjWDfzI2Ox-5" edge="1">
          <mxGeometry relative="1" as="geometry" />
        </mxCell>
        <mxCell id="LOavYstI44WjWDfzI2Ox-16" value="Frontend + Nginx gateway" style="rounded=0;whiteSpace=wrap;html=1;" parent="1" vertex="1">
          <mxGeometry x="330" y="390" width="120" height="60" as="geometry" />
        </mxCell>
        <mxCell id="LOavYstI44WjWDfzI2Ox-19" value="OIDC Provider" style="whiteSpace=wrap;html=1;aspect=fixed;" parent="1" vertex="1">
          <mxGeometry x="100" y="370" width="80" height="80" as="geometry" />
        </mxCell>
        <mxCell id="LOavYstI44WjWDfzI2Ox-20" value="Cache (Redis)" style="shape=document;whiteSpace=wrap;html=1;boundedLbl=1;" parent="1" vertex="1">
          <mxGeometry x="40" y="520" width="90" height="50" as="geometry" />
        </mxCell>
        <mxCell id="LOavYstI44WjWDfzI2Ox-23" value="Voting system" style="text;html=1;align=center;verticalAlign=middle;resizable=0;points=[];autosize=1;" parent="1" vertex="1">
          <mxGeometry x="335" y="310" width="90" height="20" as="geometry" />
        </mxCell>
        <mxCell id="TCs1OWJkmc1U1B6i_L3Y-1" value="" style="endArrow=none;html=1;" edge="1" parent="1">
          <mxGeometry width="50" height="50" relative="1" as="geometry">
            <mxPoint x="10" y="840" as="sourcePoint" />
            <mxPoint x="820" y="840" as="targetPoint" />
          </mxGeometry>
        </mxCell>
        <mxCell id="TCs1OWJkmc1U1B6i_L3Y-2" value="ELK Stack&lt;br&gt;Log agregation" style="rounded=0;whiteSpace=wrap;html=1;" vertex="1" parent="1">
          <mxGeometry x="110" y="880" width="140" height="80" as="geometry" />
        </mxCell>
        <mxCell id="TCs1OWJkmc1U1B6i_L3Y-3" value="GitLab (CI/CD)" style="rounded=0;whiteSpace=wrap;html=1;" vertex="1" parent="1">
          <mxGeometry x="335" y="880" width="145" height="80" as="geometry" />
        </mxCell>
        <mxCell id="TCs1OWJkmc1U1B6i_L3Y-5" value="Prometheus + Grafana (Metrics aggregation and visualization)" style="rounded=0;whiteSpace=wrap;html=1;" vertex="1" parent="1">
          <mxGeometry x="550" y="880" width="180" height="80" as="geometry" />
        </mxCell>
        <mxCell id="TCs1OWJkmc1U1B6i_L3Y-6" value="" style="rounded=0;whiteSpace=wrap;html=1;fillColor=none;" vertex="1" parent="1">
          <mxGeometry x="10" y="330" width="795" height="140" as="geometry" />
        </mxCell>
        <mxCell id="TCs1OWJkmc1U1B6i_L3Y-7" value="" style="rounded=0;whiteSpace=wrap;html=1;fillColor=none;" vertex="1" parent="1">
          <mxGeometry x="30" y="490" width="290" height="340" as="geometry" />
        </mxCell>
        <mxCell id="TCs1OWJkmc1U1B6i_L3Y-8" value="" style="rounded=0;whiteSpace=wrap;html=1;fillColor=none;" vertex="1" parent="1">
          <mxGeometry x="470" y="490" width="270" height="340" as="geometry" />
        </mxCell>
      </root>
    </mxGraphModel>
  </diagram>
</mxfile>
